<?xml version="1.0" encoding="UTF-8" standalone="no"?>
<svg
   xmlns:dc="http://purl.org/dc/elements/1.1/"
   xmlns:cc="http://creativecommons.org/ns#"
   xmlns:rdf="http://www.w3.org/1999/02/22-rdf-syntax-ns#"
   xmlns:svg="http://www.w3.org/2000/svg"
   xmlns="http://www.w3.org/2000/svg"
   xmlns:sodipodi="http://sodipodi.sourceforge.net/DTD/sodipodi-0.dtd"
   xmlns:inkscape="http://www.inkscape.org/namespaces/inkscape"
   version="1.1"
   id="svg2"
   xml:space="preserve"
   width="2666.6667"
   height="2666.6667"
   viewBox="0 0 2666.6667 2666.6667"
   sodipodi:docname="vecteezy_male-web-developer-creating-program-code-development-of_.eps"><metadata
     id="metadata8"><rdf:RDF><cc:Work
         rdf:about=""><dc:format>image/svg+xml</dc:format><dc:type
           rdf:resource="http://purl.org/dc/dcmitype/StillImage" /></cc:Work></rdf:RDF></metadata><defs
     id="defs6" /><sodipodi:namedview
     pagecolor="#ffffff"
     bordercolor="#666666"
     borderopacity="1"
     objecttolerance="10"
     gridtolerance="10"
     guidetolerance="10"
     inkscape:pageopacity="0"
     inkscape:pageshadow="2"
     inkscape:window-width="640"
     inkscape:window-height="480"
     id="namedview4" /><g
     id="g10"
     inkscape:groupmode="layer"
     inkscape:label="ink_ext_XXXXXX"
     transform="matrix(1.3333333,0,0,-1.3333333,0,2666.6667)"><g
       id="g12"
       transform="scale(0.1)"><path
         d="M 0,0 H 20000 V 20000 H 0 Z"
         style="fill:#ffffff;fill-opacity:1;fill-rule:nonzero;stroke:none"
         id="path14" /><path
         d="m 10000,1743.7 c -1559.3,0 -2823.41,48 -2823.41,107.1 0,59.2 1264.11,107.1 2823.41,107.1 1559.3,0 2823.4,-47.9 2823.4,-107.1 0,-59.1 -1264.1,-107.1 -2823.4,-107.1"
         style="fill:#dad9d8;fill-opacity:1;fill-rule:nonzero;stroke:none"
         id="path16" /><path
         d="m 11595.4,13179.7 c -53,-154.1 -9.1,-308.2 96.4,-344.2 106.1,-36.6 235,59.1 287.9,212.3 52.6,154.5 9.7,308.7 -96.1,344.6 -106.7,36.5 -235.1,-58.5 -288.2,-212.7"
         style="fill:#f89c6e;fill-opacity:1;fill-rule:nonzero;stroke:none"
         id="path18" /><path
         d="m 8219.9,13887.7 c -30.55,-148.1 27.33,-285.8 129.31,-305.9 102.36,-21.4 209.73,82.1 239.88,230.2 30.55,148.1 -27.84,285.1 -129.6,306.1 -102.11,21 -209.82,-81.9 -239.59,-230.4"
         style="fill:#f89c6e;fill-opacity:1;fill-rule:nonzero;stroke:none"
         id="path20" /><path
         d="m 8170.66,8194.4 c 0,0 -955.53,-1511.9 -764.58,-2815.3 191.61,-1302.7 1101.58,-1502.3 1101.58,-1502.3 l 97.54,268.6 c 0,0 -747.33,642.9 -451.96,1633.5 295.38,990.4 932.63,1813 932.63,1813 0,0 258.13,402.5 -28.7,637.4 -286.5,234.5 -886.51,-34.9 -886.51,-34.9"
         style="fill:#364071;fill-opacity:1;fill-rule:nonzero;stroke:none"
         id="path22" /><path
         d="m 10086,7534.2 c 0,0 -559.79,-3284.2 -386.1,-5508.6 l -252.46,41.6 c 0,0 -820.71,3711.7 -351.3,5935.9 0,0 746.82,-173.8 989.86,-468.9"
         style="fill:#364071;fill-opacity:1;fill-rule:nonzero;stroke:none"
         id="path24" /><path
         d="m 10312.5,7261.4 c 0,0 -131.9,-6.8 -260.1,79.3 l 24.2,140.5 c 0,0 154.5,-99.3 235.9,-219.8"
         style="fill:#1d4f51;fill-opacity:1;fill-rule:nonzero;stroke:none"
         id="path26" /><path
         d="m 9949.46,11086.5 c 0,0 431.44,92.6 859.84,625.4 428.7,533 720.3,1183.1 736,1187.9 213.7,64.4 341.9,-75.2 341.9,-75.2 0,0 -330.3,-965.1 -1329.6,-2346.5 -60.6,-199.7 -249.9,-1501.9 -243.7,-3216.7 0,0 -102.6,133.7 -335.72,284.3 -226.67,146.2 -1246.14,570.6 -1881.34,570.4 0,0 523.06,2005.8 584.26,2466.5 -8.9,269.4 -617.07,1190.4 -469.72,3119 l 295.7,-121.3 c 0,0 -17.44,-1355.6 565.11,-2146.3 182.24,-234.7 347.71,-286.5 347.71,-286.5 l 529.56,-61"
         style="fill:#ef2c57;fill-opacity:1;fill-rule:nonzero;stroke:none"
         id="path28" /><path
         d="m 9925.18,11117.8 -452.31,44.3 11.98,379.8 453.31,-45.5 -12.98,-378.6"
         style="fill:#f89c6e;fill-opacity:1;fill-rule:nonzero;stroke:none"
         id="path30" /><path
         d="m 9328.93,11197.3 c 0,0 629.08,-67.9 716.77,-76.4 87.3,-8.8 -24.5,-268.1 -372.99,-222.3 -283.08,37.1 -386.67,159.3 -343.78,298.7"
         style="fill:#f89c6e;fill-opacity:1;fill-rule:nonzero;stroke:none"
         id="path32" /><path
         d="m 10446.5,12114.3 c -8.2,-86.6 -70.7,-150.7 -139.5,-144.4 -68.7,6.8 -117.2,82.7 -108.8,169.2 8.7,86.2 70.9,151.1 140,143.9 68.2,-6.5 116.9,-82 108.3,-168.7"
         style="fill:#f89c6e;fill-opacity:1;fill-rule:nonzero;stroke:none"
         id="path34" /><path
         d="m 9453.05,12213.3 c -9.05,-86.2 -71.28,-151.3 -140.17,-144.1 -67.86,7 -117.1,82.4 -108.72,168.9 9.07,86.7 71.45,150.9 140.53,144.1 68.03,-6.8 116.89,-82.2 108.36,-168.9"
         style="fill:#f89c6e;fill-opacity:1;fill-rule:nonzero;stroke:none"
         id="path36" /><path
         d="m 9934.18,11380.2 3.79,110.6 -3.78,-110.6 c -0.01,0 -0.01,0 -0.01,0 m 3.98,116.2 -453.31,45.5 453.31,-45.5 v 0"
         style="fill:#fcd3c0;fill-opacity:1;fill-rule:nonzero;stroke:none"
         id="path38" /><path
         d="m 9776.75,11351.7 c -16.11,0 -32.5,0.9 -49.17,2.5 -96.36,9.7 -177.37,48.1 -245.32,105.4 l 2.59,82.3 453.31,-45.5 -0.19,-5.6 -3.79,-110.6 c -49.01,-18.6 -101.55,-28.5 -157.43,-28.5"
         style="fill:#f57e52;fill-opacity:1;fill-rule:nonzero;stroke:none"
         id="path40" /><path
         d="m 10328.9,12029.7 c -93.3,-373.1 -304.1,-610.2 -601.32,-580.7 -296.74,29.8 -462.38,310.4 -474.53,688.2 -11.28,352.5 162.39,624.6 601,580.5 438.25,-43 560.35,-345.9 474.85,-688"
         style="fill:#f89c6e;fill-opacity:1;fill-rule:nonzero;stroke:none"
         id="path42" /><path
         d="m 9590.37,12593.2 c 80.38,-73.8 283.55,-230 671.23,-357 1.7,-1 3.4,-2 5.1,-3 160,-92.7 372.1,-3.8 414.1,176.3 19.6,84 13.1,192.4 -54.1,326.8 -190.3,379.3 -875.19,605.3 -1178.45,289.5 0,0 -524.3,-113.3 -318.63,-768.9 8.43,-26.8 41,-38.9 64.55,-23.5 104,68.3 314.19,145.2 348.42,343.3 3.9,22.6 30.89,32.1 47.78,16.5"
         style="fill:#201e38;fill-opacity:1;fill-rule:nonzero;stroke:none"
         id="path44" /><path
         d="m 9296.81,12311.1 c 0,0 -34.19,-182.2 -19.82,-373.9 0,0 -52.84,233.7 -39.83,367.2 13.51,134 59.65,6.7 59.65,6.7"
         style="fill:#201e38;fill-opacity:1;fill-rule:nonzero;stroke:none"
         id="path46" /><path
         d="m 10312,12209.5 c 0,0 -1.9,-185.1 -53.8,-370 0,0 98.1,218.4 111.2,352.3 13,133.3 -57.4,17.7 -57.4,17.7"
         style="fill:#201e38;fill-opacity:1;fill-rule:nonzero;stroke:none"
         id="path48" /><path
         d="m 8470.83,3887 c 0,0 20.18,-289.5 151.14,-486.4 21.69,-29.9 54.02,-6 54.69,50.6 0,55.6 78.45,626.5 30.76,659.5 -47.18,33.3 -94.37,34.2 -94.37,34.2 0,0 -147.01,-219.7 -142.22,-257.9"
         style="fill:#2c2e45;fill-opacity:1;fill-rule:nonzero;stroke:none"
         id="path50" /><path
         d="m 9412.03,2155 c 0,0 -325.82,-66.1 -531.11,-243.6 -30.59,-28.9 0.84,-62.7 64.43,-54.7 64.45,7.9 724.95,2.2 755.89,61.4 31.12,58.5 2.41,169 2.41,169 0,0 -248.72,78.5 -291.62,67.9"
         style="fill:#2c2e45;fill-opacity:1;fill-rule:nonzero;stroke:none"
         id="path52" /><path
         d="m 12601.1,12826.6 -4951.98,1198.6 c -101.06,24.5 -163.13,126.3 -138.63,227.3 l 908.7,3748 c 24.51,101.1 126.3,163.1 227.36,138.6 l 4952.05,-1198.5 c 101,-24.6 163.1,-126.3 138.6,-227.4 l -908.7,-3748 c -24.5,-101 -126.3,-163.1 -227.4,-138.6"
         style="fill:#314759;fill-opacity:1;fill-rule:nonzero;stroke:none"
         id="path54" /><path
         d="m 13658.2,16387.4 -5318.01,1287.3 79,325.8 c 24.51,101.1 126.3,163.1 227.36,138.6 l 4952.05,-1198.5 c 101,-24.6 163.1,-126.3 138.6,-227.4 l -79,-325.8"
         style="fill:#a2a2a1;fill-opacity:1;fill-rule:nonzero;stroke:none"
         id="path56" /><path
         d="m 8827.18,17676.2 -179.65,43.5 c -24.63,6 -39.76,30.8 -33.79,55.5 l 43.6,179.8 c 5.97,24.6 30.78,39.7 55.42,33.8 l 179.64,-43.6 c 24.63,-6 39.76,-30.8 33.79,-55.4 l -43.6,-179.8 c -5.97,-24.7 -30.78,-39.8 -55.41,-33.8"
         style="fill:#ffffff;fill-opacity:1;fill-rule:nonzero;stroke:none"
         id="path58" /><path
         d="m 12100,16890.7 -2385.85,576.5 c -38.59,9.3 -62.29,48.2 -52.93,86.8 l 28.59,117.9 c 9.36,38.6 48.23,62.3 86.82,52.9 l 2385.87,-576.4 c 38.6,-9.4 62.3,-48.2 52.9,-86.8 l -28.6,-117.9 c -9.3,-38.6 -48.2,-62.3 -86.8,-53"
         style="fill:#ffffff;fill-opacity:1;fill-rule:nonzero;stroke:none"
         id="path60" /><path
         d="m 8785.39,17755.5 -69.95,91.4 104.12,49.6 z"
         style="fill:#100f0d;fill-opacity:1;fill-rule:nonzero;stroke:none"
         id="path62" /><path
         d="m 9032.11,17626.5 180.11,-43.7 c 24.63,-5.9 49.44,9.2 55.41,33.8 l 43.6,179.8 c 5.97,24.7 -9.16,49.5 -33.79,55.5 l -180.1,43.6 c -24.64,6 -49.45,-9.1 -55.42,-33.8 l -43.6,-179.8 c -5.97,-24.6 9.16,-49.4 33.79,-55.4"
         style="fill:#ffffff;fill-opacity:1;fill-rule:nonzero;stroke:none"
         id="path64" /><path
         d="m 9106.05,17677.8 104.04,49.2 -69.87,91.7 z"
         style="fill:#100f0d;fill-opacity:1;fill-rule:nonzero;stroke:none"
         id="path66" /><path
         d="m 12803.8,16860.7 c -13.1,-54.1 -67.5,-87.3 -121.7,-74.2 -54.3,13.2 -87.5,67.6 -74.4,121.8 13.2,54.1 67.6,87.4 121.9,74.2 54.2,-13.1 87.3,-67.6 74.2,-121.8"
         style="fill:#c0bdbe;fill-opacity:1;fill-rule:nonzero;stroke:none"
         id="path68" /><path
         d="m 13152.1,16776.3 c -13.1,-54.2 -67.7,-87.4 -121.8,-74.2 -54.2,13.1 -87.2,67.5 -74.1,121.7 13.2,54.1 67.5,87.4 121.6,74.3 54.1,-13.2 87.4,-67.6 74.3,-121.8"
         style="fill:#c0bdbe;fill-opacity:1;fill-rule:nonzero;stroke:none"
         id="path70" /><path
         d="m 13487.4,16695 c -13.2,-54.1 -67.3,-87.4 -121.4,-74.3 -54.3,13.1 -87.6,67.6 -74.5,121.8 13.2,54.2 67.7,87.3 122,74.2 54.1,-13.1 87,-67.5 73.9,-121.7"
         style="fill:#fac80e;fill-opacity:1;fill-rule:nonzero;stroke:none"
         id="path72" /><path
         d="m 8281.73,14131.5 -72.49,17.6 756.61,3120.6 72.49,-17.5 -756.61,-3120.7"
         style="fill:#e5e4e4;fill-opacity:1;fill-rule:nonzero;stroke:none"
         id="path74" /><path
         d="m 8742.4,17094.1 -120.6,29.2 29.23,120.5 120.6,-29.2 -29.23,-120.5"
         style="fill:#e5e4e4;fill-opacity:1;fill-rule:nonzero;stroke:none"
         id="path76" /><path
         d="m 8678.36,16829.9 -120.6,29.3 29.21,120.4 120.6,-29.2 -29.21,-120.5"
         style="fill:#e5e4e4;fill-opacity:1;fill-rule:nonzero;stroke:none"
         id="path78" /><path
         d="m 8614.25,16565.5 -120.6,29.2 29.29,120.8 120.6,-29.2 -29.29,-120.8"
         style="fill:#e5e4e4;fill-opacity:1;fill-rule:nonzero;stroke:none"
         id="path80" /><path
         d="m 8550.17,16301.2 -120.6,29.2 29.29,120.9 120.6,-29.3 -29.29,-120.8"
         style="fill:#e5e4e4;fill-opacity:1;fill-rule:nonzero;stroke:none"
         id="path82" /><path
         d="m 8486.2,16037.3 -120.61,29.3 29.18,120.3 120.6,-29.2 -29.17,-120.4"
         style="fill:#e5e4e4;fill-opacity:1;fill-rule:nonzero;stroke:none"
         id="path84" /><path
         d="m 8422.08,15772.9 -120.6,29.2 29.26,120.7 120.6,-29.2 -29.26,-120.7"
         style="fill:#e5e4e4;fill-opacity:1;fill-rule:nonzero;stroke:none"
         id="path86" /><path
         d="m 8358.03,15508.7 -120.6,29.2 29.24,120.6 120.6,-29.2 -29.24,-120.6"
         style="fill:#e5e4e4;fill-opacity:1;fill-rule:nonzero;stroke:none"
         id="path88" /><path
         d="m 8294,15244.6 -120.6,29.2 29.22,120.6 120.6,-29.3 -29.22,-120.5"
         style="fill:#e5e4e4;fill-opacity:1;fill-rule:nonzero;stroke:none"
         id="path90" /><path
         d="m 8229.89,14980.2 -120.6,29.2 29.26,120.7 120.6,-29.2 -29.26,-120.7"
         style="fill:#e5e4e4;fill-opacity:1;fill-rule:nonzero;stroke:none"
         id="path92" /><path
         d="m 8165.83,14716 -120.6,29.2 29.29,120.8 120.6,-29.2 -29.29,-120.8"
         style="fill:#e5e4e4;fill-opacity:1;fill-rule:nonzero;stroke:none"
         id="path94" /><path
         d="m 8101.8,14451.9 -120.6,29.2 29.23,120.6 120.6,-29.3 -29.23,-120.5"
         style="fill:#e5e4e4;fill-opacity:1;fill-rule:nonzero;stroke:none"
         id="path96" /><path
         d="M 9316.12,17117.2 9206,17044.9 c -7.9,-5.1 -10.08,-15.3 -5.67,-23.4 l 63.51,-107.9 c 4.94,-8.2 15.42,-10.8 23.6,-6.2 4.51,2.5 7.19,6.7 8.24,11 1.02,4.2 0.5,8.9 -1.89,12.8 0,0 -42.44,72.3 -54.97,93.9 21.1,13.7 96.46,62.9 96.46,62.9 3.8,2.6 6.55,6.5 7.51,10.4 1.12,4.7 -0.06,9.5 -2.59,14 -5.3,7.9 -15.86,10.1 -24.08,4.8"
         style="fill:#ffffff;fill-opacity:1;fill-rule:nonzero;stroke:none"
         id="path98" /><path
         d="m 9730.46,17017.7 c -4.41,-2.7 -7.43,-6.6 -8.56,-11.2 -0.95,-4 -0.43,-8.7 1.66,-12.6 0,0 44.47,-78.3 56.93,-100.2 -21.03,-13.4 -91.85,-58.2 -91.85,-58.2 -3.64,-2.5 -6.14,-6.4 -7.16,-10.6 -1.05,-4.4 -0.71,-9.3 1.87,-13.5 5.32,-7.8 15.93,-10.4 23.97,-5.3 l 105.86,66.8 c 7.66,5.2 10.11,15.3 5.68,23.4 l -64.76,114.7 c -4.62,8.4 -15.43,11.4 -23.64,6.7"
         style="fill:#ffffff;fill-opacity:1;fill-rule:nonzero;stroke:none"
         id="path100" /><path
         d="m 9591.79,17041.2 -203.07,-126.6 c -8.13,-4.9 -10.73,-15.7 -5.37,-23.9 4.85,-8 15.63,-10.5 23.8,-5.4 l 203.01,126.3 c 8.07,5.2 10.64,15.8 5.5,23.8 -4.95,8.2 -15.56,10.8 -23.87,5.8"
         style="fill:#ffffff;fill-opacity:1;fill-rule:nonzero;stroke:none"
         id="path102" /><path
         d="m 8622.89,14257.9 -110.09,-72.2 c -7.92,-5.1 -10.14,-15.5 -5.66,-23.3 l 63.47,-108.1 c 4.96,-8.1 15.38,-10.9 23.6,-6.2 4.52,2.6 7.14,6.5 8.21,10.9 1.05,4.3 0.49,8.9 -1.87,12.9 0,0 -42.43,72.3 -55.01,93.7 21.12,13.8 96.51,63.1 96.51,63.1 3.85,2.8 6.52,6.4 7.49,10.4 1.14,4.7 0.01,9.8 -2.6,13.8 -5.31,7.9 -15.85,10.3 -24.05,5"
         style="fill:#ffffff;fill-opacity:1;fill-rule:nonzero;stroke:none"
         id="path104" /><path
         d="m 9037.2,14158.3 c -4.33,-2.4 -7.4,-6.4 -8.54,-11.2 -0.97,-4 -0.37,-8.3 1.67,-12.5 0,0 44.44,-78.4 56.88,-100.3 -20.98,-13.3 -91.81,-58.1 -91.81,-58.1 -3.66,-2.6 -6.13,-6.4 -7.18,-10.7 -1.07,-4.4 -0.66,-9.1 1.9,-13.4 5.27,-8 15.95,-10.3 23.97,-5.3 l 105.91,67 c 7.58,4.9 10.08,15.2 5.66,23.4 l -64.79,114.6 c -4.64,8.3 -15.48,11.1 -23.67,6.5"
         style="fill:#ffffff;fill-opacity:1;fill-rule:nonzero;stroke:none"
         id="path106" /><path
         d="m 8898.51,14181.7 -203.01,-126.3 c -8.14,-5 -10.78,-15.8 -5.36,-23.9 4.81,-8.2 15.56,-10.8 23.75,-5.6 l 203.02,126.3 c 8.04,5.1 10.64,15.9 5.57,24.1 -5,8.1 -15.65,10.5 -23.97,5.4"
         style="fill:#ffffff;fill-opacity:1;fill-rule:nonzero;stroke:none"
         id="path108" /><path
         d="m 9554.97,16651.1 -549.28,133.2 26.32,108.5 549.28,-133.1 -26.32,-108.6"
         style="fill:#df8e16;fill-opacity:1;fill-rule:nonzero;stroke:none"
         id="path110" /><path
         d="m 9272.94,15190.7 -617.31,149.7 26.35,108.7 617.31,-149.7 -26.35,-108.7"
         style="fill:#f09212;fill-opacity:1;fill-rule:nonzero;stroke:none"
         id="path112" /><path
         d="m 8842.01,14273.3 -420.41,101.9 26.4,108.9 420.41,-102 -26.4,-108.8"
         style="fill:#f09212;fill-opacity:1;fill-rule:nonzero;stroke:none"
         id="path114" /><path
         d="m 9960.52,16297.2 -877.53,212.8 26.35,108.7 877.53,-212.8 -26.35,-108.7"
         style="fill:#43be91;fill-opacity:1;fill-rule:nonzero;stroke:none"
         id="path116" /><path
         d="m 9535.32,14867.5 -803.34,194.8 26.35,108.6 803.34,-194.7 -26.35,-108.7"
         style="fill:#f8dd67;fill-opacity:1;fill-rule:nonzero;stroke:none"
         id="path118" /><path
         d="m 9463.82,14639 -788.13,191.1 26.31,108.5 788.13,-191.1 -26.31,-108.5"
         style="fill:#8bc6c7;fill-opacity:1;fill-rule:nonzero;stroke:none"
         id="path120" /><path
         d="m 9039.28,14486.4 -422.11,102.3 26.31,108.6 422.12,-102.4 -26.32,-108.5"
         style="fill:#43be91;fill-opacity:1;fill-rule:nonzero;stroke:none"
         id="path122" /><path
         d="m 10937.6,14026.1 -1797.51,435.8 26.32,108.6 1797.59,-435.8 -26.4,-108.6"
         style="fill:#f8dd67;fill-opacity:1;fill-rule:nonzero;stroke:none"
         id="path124" /><path
         d="m 10863.5,14299.7 -1307.25,316.9 26.3,108.5 1307.25,-316.9 -26.3,-108.5"
         style="fill:#f8dd67;fill-opacity:1;fill-rule:nonzero;stroke:none"
         id="path126" /><path
         d="m 11386.3,14172.9 -422.4,102.4 26.3,108.5 422.4,-102.4 -26.3,-108.5"
         style="fill:#df8e16;fill-opacity:1;fill-rule:nonzero;stroke:none"
         id="path128" /><path
         d="m 12470.9,14155.8 -839.4,203.5 26.3,108.7 839.4,-203.6 -26.3,-108.6"
         style="fill:#8bc6c7;fill-opacity:1;fill-rule:nonzero;stroke:none"
         id="path130" /><path
         d="m 11526.1,14384.8 -1905.44,462 26.35,108.7 1905.39,-462 -26.3,-108.7"
         style="fill:#43be91;fill-opacity:1;fill-rule:nonzero;stroke:none"
         id="path132" /><path
         d="m 10554.8,16153.2 -503.4,122 26.3,108.7 503.4,-122.1 -26.3,-108.6"
         style="fill:#f8dd67;fill-opacity:1;fill-rule:nonzero;stroke:none"
         id="path134" /><path
         d="m 9544.74,15880.7 -580.23,140.7 26.32,108.5 580.22,-140.7 -26.31,-108.5"
         style="fill:#f8dd67;fill-opacity:1;fill-rule:nonzero;stroke:none"
         id="path136" /><path
         d="m 10581.4,15630 -942.18,227.6 26.32,108.6 942.16,-227.4 -26.3,-108.8"
         style="fill:#43be91;fill-opacity:1;fill-rule:nonzero;stroke:none"
         id="path138" /><path
         d="m 11547.4,15912.5 -901.9,218.7 26.3,108.7 901.9,-218.7 -26.3,-108.7"
         style="fill:#8bc6c7;fill-opacity:1;fill-rule:nonzero;stroke:none"
         id="path140" /><path
         d="m 10023.1,16020.3 -1000.06,242.5 26.32,108.5 1000.14,-242.5 -26.4,-108.5"
         style="fill:#8bc6c7;fill-opacity:1;fill-rule:nonzero;stroke:none"
         id="path142" /><path
         d="m 11104.5,15758.1 -978.2,237.2 26.3,108.5 978.2,-237.2 -26.3,-108.5"
         style="fill:#df8e16;fill-opacity:1;fill-rule:nonzero;stroke:none"
         id="path144" /><path
         d="m 11885.3,15568.8 -683.8,165.8 26.4,108.5 683.7,-165.8 -26.3,-108.5"
         style="fill:#43be91;fill-opacity:1;fill-rule:nonzero;stroke:none"
         id="path146" /><path
         d="m 10091.3,15492.9 -1185.25,287.3 26.31,108.6 1185.24,-287.4 -26.3,-108.5"
         style="fill:#8bc6c7;fill-opacity:1;fill-rule:nonzero;stroke:none"
         id="path148" /><path
         d="m 10814.5,15317.5 -632.4,153.3 26.3,108.6 632.4,-153.3 -26.3,-108.6"
         style="fill:#f8dd67;fill-opacity:1;fill-rule:nonzero;stroke:none"
         id="path150" /><path
         d="m 10035.7,15263.5 -1185.26,287.4 26.35,108.6 1185.21,-287.3 -26.3,-108.7"
         style="fill:#43be91;fill-opacity:1;fill-rule:nonzero;stroke:none"
         id="path152" /><path
         d="m 11225.6,14975 -1099.1,266.5 26.3,108.7 1099.1,-266.5 -26.3,-108.7"
         style="fill:#8bc6c7;fill-opacity:1;fill-rule:nonzero;stroke:none"
         id="path154" /><path
         d="m 12146.4,14994.6 -1226.8,297.4 26.3,108.6 1226.8,-297.5 -26.3,-108.5"
         style="fill:#43be91;fill-opacity:1;fill-rule:nonzero;stroke:none"
         id="path156" /><path
         d="m 9943.79,16556.8 -283.43,68.8 26.32,108.5 283.43,-68.7 -26.32,-108.6"
         style="fill:#43be91;fill-opacity:1;fill-rule:nonzero;stroke:none"
         id="path158" /><path
         d="m 11658.4,12982.1 v 0 c -31.5,0 -57,37.1 -57,82.8 v 113.9 c 0,45.8 25.5,82.9 57,82.9 31.4,0 56.9,-37.1 56.9,-82.9 v -113.9 c 0,-45.7 -25.5,-82.8 -56.9,-82.8"
         style="fill:#f89c6e;fill-opacity:1;fill-rule:nonzero;stroke:none"
         id="path160" /><path
         d="m 8493.68,13747.9 v 0 c -28.06,14.3 -34.05,58.9 -13.38,99.7 l 51.47,101.6 c 20.67,40.8 60.18,62.4 88.24,48.2 28.06,-14.2 34.05,-58.8 13.38,-99.7 l -51.46,-101.6 c -20.68,-40.8 -60.19,-62.4 -88.25,-48.2"
         style="fill:#f89c6e;fill-opacity:1;fill-rule:nonzero;stroke:none"
         id="path162" /></g></g></svg>
